<svg width="72" height="72" xmlns="http://www.w3.org/2000/svg"><g id="Tentang-Kami" stroke="none" stroke-width="1" fill="none" fill-rule="evenodd"><g transform="translate(-128 -48)" id="Group-2"><g id="Group-14" transform="translate(128 48)"><path d="M71.801 35.898c0 19.806-16.056 35.862-35.862 35.862S.077 55.704.077 35.898C.077 16.09 16.133.035 35.939.035s35.862 16.056 35.862 35.863" id="Fill-2" fill="#6DBD44"/><path d="M52.76 41.833l-1.35 1.35-1.525 1.525a2.09 2.09 0 01-2.951 0 2.09 2.09 0 010-2.952l2.876-2.877a2.088 2.088 0 012.95 2.954zM39.996 54.598c-1.619 1.62-4.018 2.285-6.755 1.871-2.81-.425-5.624-1.924-7.924-4.226-.23-.23-.45-.463-.662-.701a7.356 7.356 0 002.003.285c.368 0 .734-.03 1.096-.092 1.665-.282 2.984-1.216 3.816-2.701a.54.54 0 10-.94-.524c-.676 1.208-1.704 1.937-3.056 2.166-1.59.27-3.26-.227-4.305-.923a15.197 15.197 0 01-.962-1.664c-.78-1.576-1.222-3.165-1.315-4.723-.072-1.225.124-2.405.33-3.655.301-1.821.611-3.704.024-5.713-.325-1.107-.745-2.155-1.075-2.947-.1-.242-.199-.49-.293-.728-.248-.628-.504-1.276-.849-1.908-.533-.977-1.027-1.748-1.423-2.367-.55-.858-.949-1.479-.974-1.922-.015-.274.091-.667 1.003-1.51.293-.27.567-.444.838-.532 1.56-.503 2.903 1.264 3.406 2.047 1.386 2.147 2.575 3.94 3.873 5.708l.002.004c.665.893 2.452 3.476 2.735 4.69a.647.647 0 001.26-.293c-.12-.515-.416-1.161-.777-1.821.55.012 1.1-.048 1.633-.179 1.26-.306 2.44-.981 3.412-1.953l11.839-11.84a2.239 2.239 0 113.167 3.167l-7.927 7.925-3.602 3.601a3.532 3.532 0 003.253 5.95 3.46 3.46 0 004.202 3.8 3.376 3.376 0 002.96 3.695l-8.013 8.013zm3.698-24.8a2.24 2.24 0 011.584 3.823l-1.801 1.8-1.645 1.647-.155.155a2.239 2.239 0 11-3.168-3.167l1.525-1.524 2.077-2.078c.419-.421.99-.658 1.583-.656zm5.408 4.894a2.17 2.17 0 010 3.066l-.206.207-2.875 2.875-.208.207a2.167 2.167 0 11-3.086-3.044l.021-.021 1.645-1.646 1.645-1.644a2.17 2.17 0 013.064 0zm4.574 3.274a3.374 3.374 0 00-2.733-.97 3.457 3.457 0 00-3.795-4.203 3.535 3.535 0 00-3.105-4.269l5.993-5.993a3.534 3.534 0 00-4.995-5L33.201 29.37c-.803.804-1.773 1.36-2.802 1.61-.772.187-1.553.19-2.18.012a36.272 36.272 0 00-1.328-1.922c-1.277-1.743-2.453-3.517-3.824-5.644-1.41-2.184-3.194-3.123-4.893-2.575-.454.146-.885.412-1.32.814-.77.713-1.474 1.512-1.416 2.534.043.783.496 1.484 1.177 2.547.388.601.866 1.35 1.377 2.285.307.563.537 1.146.782 1.764.096.244.197.498.302.752.317.759.72 1.764 1.026 2.811.505 1.725.232 3.384-.058 5.14-.21 1.264-.425 2.572-.345 3.941.102 1.733.588 3.49 1.446 5.22a17.049 17.049 0 003.255 4.498c2.494 2.494 5.563 4.124 8.645 4.588a11.57 11.57 0 001.737.134 9.719 9.719 0 002.556-.33c1.394-.378 2.596-1.064 3.57-2.039l9.892-9.888 2.875-2.875a3.384 3.384 0 000-4.78z" id="Fill-4" fill="#FEFEFE"/><path d="M27.206 21.179a.647.647 0 10.917-.91l-3.234-3.268a.646.646 0 10-.919.91l3.236 3.268z" id="Fill-6" fill="#FEFEFE"/><path d="M29.7 19.205a.646.646 0 001.262-.286l-1.016-4.485a.647.647 0 10-1.261.286l1.016 4.485z" id="Fill-8" fill="#FEFEFE"/><path d="M33.262 19.675a.647.647 0 00.823-.398l1.51-4.343a.646.646 0 00-1.223-.426l-1.509 4.344a.647.647 0 00.399.823" id="Fill-10" fill="#FEFEFE"/><path d="M35.637 21.134a.647.647 0 00.91.098l3.578-2.887a.647.647 0 10-.811-1.008l-3.58 2.889a.647.647 0 00-.097.908" id="Fill-12" fill="#FEFEFE"/></g></g></g></svg>